<?xml version="1.0" standalone="no"?>
<!DOCTYPE svg PUBLIC "-//W3C//DTD SVG 20010904//EN"
 "http://www.w3.org/TR/2001/REC-SVG-20010904/DTD/svg10.dtd">
<svg version="1.0" xmlns="http://www.w3.org/2000/svg"
 width="576.000000pt" height="576.000000pt" viewBox="0 0 576.000000 576.000000"
 preserveAspectRatio="xMidYMid meet">
<metadata>
Created by potrace 1.11, written by Peter Selinger 2001-2013
</metadata>
<g transform="translate(0.000000,576.000000) scale(0.100000,-0.100000)"
fill="#000000" stroke="none">
<path d="M2146 5518 c-12 -29 -94 -236 -182 -460 -87 -223 -162 -403 -165
-400 -3 4 -73 202 -155 439 l-149 433 -612 0 -612 0 13 -37 c8 -21 208 -571
446 -1223 239 -652 435 -1194 437 -1205 2 -11 -242 -643 -543 -1405 -301 -762
-549 -1393 -551 -1402 -5 -17 29 -18 615 -18 l620 0 24 63 c13 34 98 259 189
499 l164 438 76 0 75 0 174 -478 c96 -262 179 -480 184 -484 6 -4 289 -8 629
-8 l617 0 15 32 c8 18 88 236 178 483 l164 450 123 0 123 0 187 -495 187 -495
653 -3 c618 -2 652 -1 647 15 -2 10 -57 151 -122 313 -405 1022 -1049 2658
-1052 2676 -3 12 172 506 406 1146 226 620 411 1129 411 1132 0 3 -264 5 -587
4 l-588 -3 -124 -362 c-69 -200 -127 -363 -130 -363 -3 0 -74 172 -156 383
l-150 382 -728 3 -728 2 -23 -52z m772 -1210 c115 -376 209 -656 314 -937
l110 -293 -138 -414 -138 -414 -220 0 -221 0 -132 391 -132 391 124 332 c105
280 267 769 347 1044 12 39 24 72 27 72 4 0 30 -78 59 -172z"/>
</g>
</svg>
